<?xml version="1.0" standalone="no"?>
<!DOCTYPE svg PUBLIC "-//W3C//DTD SVG 1.1//EN" "http://www.w3.org/Graphics/SVG/1.1/DTD/svg11.dtd">
<svg t="1530867156705" class="icon" style="" viewBox="0 0 1024 1024" version="1.1" xmlns="http://www.w3.org/2000/svg" p-id="1433" xmlns:xlink="http://www.w3.org/1999/xlink" width="32" height="32">
  <defs>
    <style type="text/css"></style>
  </defs>
  <path d="M254.4 82.624L82.624 254.4a60.704 60.704 0 0 0 0 85.92L254.4 512l128.8-128.8-42.88-42.88-85.92 85.888-42.88-42.88 85.888-85.92-42.88-42.88-85.92 85.888-42.88-42.88 171.776-171.84 171.584 171.616L512 254.4l-171.776-171.84a60.576 60.576 0 0 0-85.76 0z m644.096 644.064l-171.808 171.808-42.88-42.912 85.888-85.888-42.88-42.88-85.92 85.856-42.88-42.88 85.888-85.888-42.912-42.912L512 769.6l171.776 171.776a60.704 60.704 0 0 0 85.92 0l171.776-171.776a60.704 60.704 0 0 0 0-85.92L769.6 512l-42.912 42.88 171.808 171.808zM680.8 211.328l131.968 131.872-43.968 44L636.8 255.2l44-43.872zM240.96 650.976l131.968 131.872-44 44-131.968-131.872 44-44zM680.704 123.424a124.544 124.544 0 0 1 176.288 0.096l43.584 43.52a124.704 124.704 0 0 1 0.096 176.16L355.264 888.416l-268.352 48.384 48.384-268.288L680.704 123.424zM334.4 821.344L857.472 298.656c23.84-23.872 23.552-63.264-0.8-87.52L813.12 167.616c-24.544-24.544-63.552-24.832-87.584-0.8L202.432 689.6l-27.52 159.424 159.52-27.616z" fill="#FFFFFF" p-id="1434"></path>
</svg>