<?xml version="1.0" standalone="no"?><!DOCTYPE svg PUBLIC "-//W3C//DTD SVG 1.1//EN" "http://www.w3.org/Graphics/SVG/1.1/DTD/svg11.dtd"><svg t="1530872981477" class="icon" style="" viewBox="0 0 1024 1024" version="1.1" xmlns="http://www.w3.org/2000/svg" p-id="1760" xmlns:xlink="http://www.w3.org/1999/xlink" width="256" height="256"><defs><style type="text/css"></style></defs><path d="M730.35776 794.4192c19.07712 0 41.48224-12.3392 49.64352-29.16352l158.72-300.35968c9.49248-18.2784-4.31104-29.16352-29.16352-29.16352L749.28128 435.73248l0-71.77216c0-24.77056-20.15232-44.92288-44.92288-44.92288L311.98208 319.03744l-29.11232-76.41088c-3.03104-7.936-10.63936-13.18912-19.13856-13.18912L104.5504 229.43744c-5.44768 0-10.68032 2.17088-14.53056 6.0416-3.84 3.87072-5.98016 9.10336-5.94944 14.56128l0.38912 113.92L83.68128 749.62944c0 24.77056 20.15232 44.92288 44.92288 44.92288M708.32128 435.74272l-349.4912 0c-16.10752 0-31.34464 13.01504-39.40352 29.16352L176.72192 753.59232l-48.11776 0c-2.18112 0-3.96288-1.78176-3.96288-3.96288L124.64128 363.84768l-0.02048-93.44 124.99968 0 29.11232 76.41088c3.03104 7.936 10.63936 13.18912 19.13856 13.18912l406.48704 0c2.18112 0 3.96288 1.78176 3.96288 3.96288L708.32128 435.74272z" p-id="1761"></path></svg>