<?xml version="1.0" encoding="utf-8"?>
<!-- Generator: Adobe Illustrator 25.1.0, SVG Export Plug-In . SVG Version: 6.00 Build 0)  -->
<svg version="1.1" id="图层_1" xmlns="http://www.w3.org/2000/svg" xmlns:xlink="http://www.w3.org/1999/xlink" x="0px" y="0px"
	 viewBox="0 0 32 32" style="enable-background:new 0 0 32 32;" xml:space="preserve">
<style type="text/css">
	.st0{fill:#FFFFFF;}
</style>
<g>
	<path class="st0" d="M14,13.7c0.2-0.4,0.3-0.9,0.3-1.5c0-0.6-0.2-1.1-0.4-1.6l1.5-0.6c0.1,0.2,0.3,0.4,0.5,0.6
		c1,0.9,2.5,0.7,3.4-0.3s0.7-2.5-0.3-3.4s-2.5-0.7-3.4,0.3c-0.5,0.6-0.7,1.4-0.5,2.1L13.5,10c-0.6-0.7-1.4-1.1-2.3-1.2V6.4
		c1.2-0.2,2.1-1.2,2.1-2.4c0-1.3-1.1-2.4-2.4-2.4S8.4,2.7,8.4,4c0,1.2,0.9,2.2,2.1,2.4v2.4C8.7,9,7.4,10.5,7.4,12.3
		c0,0.9,0.3,1.7,0.9,2.3l-1.1,0.5c-0.4-0.6-1.2-1-2-1c-1.3,0-2.4,1.1-2.4,2.4c0,1.3,1.1,2.4,2.4,2.4s2.4-1.1,2.4-2.4
		c0-0.3-0.1-0.5-0.1-0.7L8.8,15c0.6,0.4,1.3,0.7,2.1,0.7c1.1,0,2.2-0.6,2.8-1.4"/>
</g>
<g>
	<path class="st0" d="M23.8,25c0.2-0.4,0.3-0.9,0.3-1.5c0-0.6-0.2-1.1-0.4-1.6l1.5-0.6c0.1,0.2,0.3,0.4,0.5,0.6
		c1,0.9,2.5,0.7,3.4-0.3c0.9-1,0.7-2.5-0.3-3.4s-2.5-0.7-3.4,0.3c-0.5,0.6-0.7,1.4-0.5,2.1l-1.6,0.7c-0.6-0.7-1.4-1.1-2.3-1.2v-2.4
		c1.2-0.2,2.1-1.2,2.1-2.4c0-1.3-1.1-2.4-2.4-2.4s-2.4,1.1-2.4,2.4c0,1.2,0.9,2.2,2.1,2.4v2.4c-1.8,0.2-3.1,1.6-3.1,3.5
		c0,0.9,0.3,1.7,0.9,2.3L17,26.4c-0.4-0.6-1.2-1-2-1c-1.3,0-2.4,1.1-2.4,2.4c0,1.3,1.1,2.4,2.4,2.4s2.4-1.1,2.4-2.4
		c0-0.3,0-0.5-0.1-0.7l1.3-0.7c0.6,0.4,1.3,0.7,2.1,0.7c1.1,0,2.2-0.6,2.8-1.4"/>
</g>
</svg>
