<?xml version="1.0" standalone="no"?>
<!DOCTYPE svg PUBLIC "-//W3C//DTD SVG 1.1//EN" "http://www.w3.org/Graphics/SVG/1.1/DTD/svg11.dtd">
<svg t="1544163099345" class="icon" style="" viewBox="0 0 1024 1024" version="1.1" xmlns="http://www.w3.org/2000/svg" p-id="1319" xmlns:xlink="http://www.w3.org/1999/xlink" width="512" height="512">
  <defs>
    <style type="text/css"></style>
  </defs>
  <path d="M940.8 694.4c-54.4-9.6-108.8-25.6-160-54.4-22.4-16-44.8-32-44.8-60.8 0-6.4-3.2-9.6-9.6-9.6-35.2-6.4-44.8 0-38.4 38.4 3.2 22.4 16 38.4 35.2 54.4 25.6 22.4 57.6 32 89.6 44.8 41.6 16 89.6 22.4 128 44.8 38.4 19.2 41.6 44.8 16 76.8-38.4 44.8-86.4 70.4-144 83.2-115.2 22.4-227.2 9.6-339.2-25.6-51.2-16-83.2-6.4-108.8 35.2 0 3.2-3.2 3.2-6.4 9.6 41.6 12.8 76.8 25.6 115.2 35.2 115.2 28.8 233.6 41.6 352 9.6 70.4-19.2 131.2-54.4 172.8-118.4 48-73.6 32-147.2-57.6-163.2zM502.4 512c0-102.4-64-201.6-153.6-236.8-96-38.4-201.6-19.2-275.2 57.6S-19.2 512 25.6 611.2c51.2 115.2 134.4 211.2 217.6 304 9.6 9.6 12.8 9.6 22.4 0 76.8-89.6 153.6-179.2 208-284.8 16-38.4 32-76.8 28.8-118.4zM416 582.4c-35.2 83.2-96 150.4-153.6 220.8-9.6 9.6-12.8 6.4-19.2 0C185.6 736 128 665.6 89.6 582.4c-9.6-22.4-16-44.8-16-67.2 0-76.8 48-147.2 115.2-172.8 67.2-25.6 137.6-12.8 192 41.6 51.2 54.4 64 128 35.2 198.4zM694.4 508.8c6.4 6.4 12.8 6.4 19.2 0 70.4-60.8 134.4-124.8 169.6-211.2C934.4 172.8 838.4 32 707.2 32c-137.6 0-236.8 153.6-176 281.6 35.2 80 99.2 137.6 163.2 195.2zM704 105.6c92.8 0 150.4 96 108.8 176-22.4 44.8-60.8 80-96 112-9.6 6.4-16 6.4-22.4 0-35.2-32-73.6-64-96-108.8-44.8-80 12.8-179.2 105.6-179.2z" fill="#000000" p-id="1320"></path>
  <path d="M704 291.2c28.8 0 51.2-25.6 51.2-54.4 0-32-25.6-57.6-54.4-54.4-28.8 0-51.2 25.6-51.2 57.6 0 28.8 22.4 51.2 54.4 51.2zM249.6 406.4c-60.8 0-105.6 51.2-105.6 112s51.2 112 108.8 112c60.8 0 108.8-51.2 108.8-112-3.2-64-51.2-115.2-112-112z m0 147.2c-19.2-3.2-32-16-35.2-35.2 0-19.2 19.2-38.4 35.2-38.4 22.4 0 38.4 16 38.4 38.4 0 19.2-19.2 38.4-38.4 35.2z" fill="#000000" p-id="1321"></path>
</svg>