<?xml version="1.0" encoding="utf-8"?>
<!-- Generator: Adobe Illustrator 25.1.0, SVG Export Plug-In . SVG Version: 6.00 Build 0)  -->
<svg version="1.1" id="图层_1" xmlns="http://www.w3.org/2000/svg" xmlns:xlink="http://www.w3.org/1999/xlink" x="0px" y="0px"
	 viewBox="0 0 1024 1024" style="enable-background:new 0 0 1024 1024;" xml:space="preserve" width="32" height="32">
<g>
	<path d="M448.08,439.12c6.64-14.32,10.64-30.08,10.64-46.88c0-19.12-5.2-36.8-13.68-52.48L492.88,320c4.24,7.2,9.44,14,16.24,19.68
		c32.64,27.68,81.44,23.68,109.12-8.96c27.68-32.64,23.68-81.44-8.96-109.12c-32.64-27.68-81.44-23.68-109.12,8.96
		c-16.72,19.68-21.68,45.28-15.92,68.64l-52.08,21.52C414,299.2,388,284.8,358.4,281.76v-76c37.36-5.52,66.16-37.36,66.16-76.32
		c0-42.8-34.64-77.44-77.44-77.44c-42.8,0-77.44,34.64-77.44,77.44c0,38.88,28.8,70.8,66.16,76.32v76
		c-56.24,5.76-100.32,52.72-100.32,110.48c0,27.76,10.48,52.88,27.28,72.4L229.12,482c-14-20.24-37.28-33.52-63.68-33.52
		c-42.8,0-77.44,34.64-77.44,77.44c0,42.8,34.64,77.44,77.44,77.44c42.8,0,77.28-34.72,77.28-77.44c0-8.24-1.6-16.08-4-23.52
		l41.36-21.28c18.72,14.16,41.76,22.8,66.96,22.8c36.72,0,69.04-18,89.36-45.36" fill="#FFFFFF"/>
</g>
<path class="st0" d="M882.51,542.44c10.69,0,19.52,1.73,26.47,5.19c6.95,3.46,12.48,7.78,16.58,12.97s6.95,10.81,8.55,16.86
	c1.6,6.05,2.41,11.67,2.41,16.86c0,2.42-0.09,4.32-0.27,5.71c-0.18,1.38-0.27,2.59-0.27,3.63v3.11h-35.29v272.33
	c0,6.92-1.43,13.57-4.28,19.97s-6.95,12.02-12.3,16.86s-11.85,8.73-19.52,11.67c-7.66,2.94-16.49,4.41-26.47,4.41H599.66
	c-9.27,0-18-1.38-26.2-4.15c-8.2-2.77-15.24-6.66-21.12-11.67c-5.88-5.01-10.52-11.07-13.9-18.16c-3.39-7.09-5.08-15.13-5.08-24.12
	V606.76h-33.15c-0.36-0.35-0.53-1.21-0.53-2.59c-0.36-1.73-0.53-7.09-0.53-16.08c0-4.5,1.07-9.51,3.21-15.04s5.35-10.63,9.62-15.3
	c4.28-4.67,9.8-8.56,16.58-11.67s14.79-4.67,24.06-4.67h47.59v-31.64c0-8.99,3.21-16.69,9.62-23.08c6.42-6.4,14.26-9.6,23.53-9.6
	H800.7c12.48,0,21.12,3.2,25.93,9.6s7.22,14.09,7.22,23.08v32.16c7.49,0.35,15.51,0.52,24.06,0.52L882.51,542.44L882.51,542.44z
	 M633.35,542.44H800.7v-32.68H633.35C633.35,509.76,633.35,542.44,633.35,542.44z M616.77,870.79c11.41,0,17.11-7.09,17.11-21.27
	V608.83h-33.15v240.69c0,7.26,1.16,12.62,3.48,16.08C606.52,869.06,610.71,870.79,616.77,870.79z M717.83,870.27
	c6.06,0,10.16-1.64,12.3-4.93c2.14-3.29,3.21-8.56,3.21-15.82V608.83h-33.15v240.69C700.18,863.36,706.06,870.27,717.83,870.27z
	 M818.35,869.23c6.42,0,10.69-1.64,12.83-4.93c2.14-3.29,3.21-8.56,3.21-15.82V608.83H800.7v239.65
	C800.7,862.32,806.58,869.23,818.35,869.23L818.35,869.23z" fill="#FFFFFF"	/>
</svg>
