<?xml version="1.0" encoding="utf-8"?>
<!-- Generator: Adobe Illustrator 25.1.0, SVG Export Plug-In . SVG Version: 6.00 Build 0)  -->
<svg version="1.1" id="图层_1" xmlns="http://www.w3.org/2000/svg" xmlns:xlink="http://www.w3.org/1999/xlink" x="0px" y="0px"
	 viewBox="0 0 200 200" style="enable-background:new 0 0 200 200;" xml:space="preserve">
<path d="M32.9,91.7h134.2c5.3,0,7.9,2.6,7.9,7.9v0.8c0,5.3-2.6,7.9-7.9,7.9H32.9c-5.3,0-7.9-2.6-7.9-7.9v-0.8
	C25,94.3,27.6,91.7,32.9,91.7z"/>
<path d="M32.9,133.3h134.2c5.3,0,7.9,2.6,7.9,7.9v0.8c0,5.3-2.6,7.9-7.9,7.9H32.9c-5.3,0-7.9-2.6-7.9-7.9v-0.8
	C25,136,27.6,133.3,32.9,133.3z"/>
<path d="M32.9,50h134.2c5.3,0,7.9,2.6,7.9,7.9v0.8c0,5.3-2.6,7.9-7.9,7.9H32.9c-5.3,0-7.9-2.6-7.9-7.9v-0.8C25,52.6,27.6,50,32.9,50
	z"/>
</svg>
