<?xml version="1.0" standalone="no"?><!DOCTYPE svg PUBLIC "-//W3C//DTD SVG 1.1//EN" "http://www.w3.org/Graphics/SVG/1.1/DTD/svg11.dtd"><svg t="1530870711832" class="icon" style="" viewBox="0 0 1024 1024" version="1.1" xmlns="http://www.w3.org/2000/svg" p-id="1119" xmlns:xlink="http://www.w3.org/1999/xlink" width="256" height="256"><defs><style type="text/css"></style></defs><path d="M918.187581 554.021046l-44.645826 0c-19.258623 167.486572-152.058185 300.17664-319.523267 319.479265l0 44.689828c0 23.198352-18.821671 42.020022-42.020022 42.020022s-42.020022-18.821671-42.020022-42.020022l0-44.689828C302.514383 854.196663 169.715845 721.506595 150.456199 554.021046l-44.645826 0c-23.198352 0-42.020022-18.821671-42.020022-42.020022 0-23.219841 18.821671-42.020022 42.020022-42.020022l44.689828 0c19.302625-167.465083 151.992693-300.264645 319.479265-319.54578L469.979466 105.811908c0-23.198352 18.821671-42.020022 42.020022-42.020022s42.020022 18.821671 42.020022 42.020022l0 44.689828c167.465083 19.302625 300.264645 151.992693 319.523267 319.479265l44.645826 0c23.198352 0 42.020022 18.799158 42.020022 42.020022C960.207603 535.199375 941.385932 554.021046 918.187581 554.021046zM708.090539 469.981001l80.537268 0c-18.2302-120.981399-113.670899-216.444611-234.609319-234.6963l0 80.625272c0 23.198352-18.821671 42.020022-42.020022 42.020022s-42.020022-18.821671-42.020022-42.020022l0-80.55978c-120.981399 18.252713-216.444611 113.693412-234.6963 234.630808l80.625272 0c23.198352 0 42.020022 18.799158 42.020022 42.020022 0 23.198352-18.821671 42.020022-42.020022 42.020022l-80.537268 0C253.623883 675.001421 349.043093 770.464633 469.979466 788.716322l0-80.624249c0-23.219841 18.821671-42.020022 42.020022-42.020022s42.020022 18.799158 42.020022 42.020022l0 80.624249c120.93842-18.251689 216.378096-113.714901 234.609319-234.6963L708.090539 554.020022c-23.198352 0-42.020022-18.821671-42.020022-42.020022C666.070516 488.780159 684.892187 469.981001 708.090539 469.981001zM511.999488 554.021046c-23.198352 0-42.020022-18.821671-42.020022-42.020022 0-23.219841 18.821671-42.020022 42.020022-42.020022s42.020022 18.799158 42.020022 42.020022C554.018487 535.199375 535.19784 554.021046 511.999488 554.021046z" p-id="1120"></path></svg>