<?xml version="1.0" standalone="no"?><!DOCTYPE svg PUBLIC "-//W3C//DTD SVG 1.1//EN" "http://www.w3.org/Graphics/SVG/1.1/DTD/svg11.dtd"><svg t="1725757377652" class="icon" viewBox="0 0 1024 1024" version="1.1" xmlns="http://www.w3.org/2000/svg" p-id="4472" xmlns:xlink="http://www.w3.org/1999/xlink" width="48" height="48"><path d="M894.677333 586.666667H853.333333a32 32 0 0 1 0-64h41.344a382.293333 382.293333 0 0 0-89.450666-215.978667l-29.077334 29.077333a32 32 0 1 1-45.248-45.248l29.077334-29.077333A382.293333 382.293333 0 0 0 544 171.989333V213.12a32 32 0 1 1-64 0V171.989333a382.293333 382.293333 0 0 0-215.978667 89.450667l29.077334 29.077333a32 32 0 1 1-45.248 45.248l-29.077334-29.077333A382.293333 382.293333 0 0 0 129.322667 522.666667H170.453333a32 32 0 0 1 0 64H129.322667a382.293333 382.293333 0 0 0 89.450666 215.978666l29.226667-29.248a32 32 0 0 1 45.269333 45.248l-45.098666 45.098667a32.213333 32.213333 0 0 1-4.181334 3.52 32 32 0 0 1-48.789333 4.181333c-174.933333-174.933333-174.933333-458.602667 0-633.557333 174.976-174.954667 458.624-174.954667 633.6 0 174.933333 174.933333 174.933333 458.602667 0 633.557333a32 32 0 0 1-48.789333-4.181333 32.213333 32.213333 0 0 1-4.181334-3.52l-45.098666-45.098667a32 32 0 0 1 45.248-45.248l29.248 29.226667A382.293333 382.293333 0 0 0 894.677333 586.666667z m-322.346666 28.330666a85.333333 85.333333 0 1 1-120.661334-120.661333c19.413333-19.456 86.250667-55.466667 200.448-108.096a21.333333 21.333333 0 0 1 28.309334 28.309333c-52.629333 114.197333-88.64 181.013333-108.096 200.448z m-75.413334-75.413333a21.333333 21.333333 0 0 0 30.165334 30.165333c6.826667-6.826667 21.632-31.872 42.517333-72.682666-40.810667 20.885333-65.856 35.690667-72.682667 42.517333z" fill="#000000" p-id="4473"></path></svg>