<?xml version="1.0" standalone="no"?>
<!DOCTYPE svg PUBLIC "-//W3C//DTD SVG 1.1//EN" "http://www.w3.org/Graphics/SVG/1.1/DTD/svg11.dtd">
<svg t="1697689494780" class="icon" viewBox="0 0 1024 1024" version="1.1" xmlns="http://www.w3.org/2000/svg" p-id="4017" xmlns:xlink="http://www.w3.org/1999/xlink" width="32" height="32">
  <path d="M708.388571 121.904762L902.095238 320.804571V828.952381a73.142857 73.142857 0 0 1-73.142857 73.142857H195.047619a73.142857 73.142857 0 0 1-73.142857-73.142857V195.047619a73.142857 73.142857 0 0 1 73.142857-73.142857h513.340952zM292.571429 195.023238L195.047619 195.047619v633.904762l97.52381-0.024381V536.380952h438.857142v292.547048L828.952381 828.952381V350.549333l-97.52381-100.156952V365.714286H292.571429V195.023238zM658.285714 609.52381H365.714286v219.40419h292.571428V609.52381z m-48.761904 73.142857v73.142857h-195.04762v-73.142857h195.04762z m48.761904-487.619048H365.714286v97.52381h292.571428V195.047619z" p-id="4018" fill="#FFFFFF"></path>
</svg>