<?xml version="1.0" standalone="no"?>
<!DOCTYPE svg PUBLIC "-//W3C//DTD SVG 1.1//EN" "http://www.w3.org/Graphics/SVG/1.1/DTD/svg11.dtd">
<svg t="1531450161604" class="icon" style="" viewBox="0 0 1024 1024" version="1.1" xmlns="http://www.w3.org/2000/svg" p-id="1052" xmlns:xlink="http://www.w3.org/1999/xlink" width="32" height="32">
  <defs>
    <style type="text/css"></style>
  </defs>
  <path d="M939.696 268.753c-14.637-13.726-37.719-13.071-51.445 1.602l-485.551 516.969-265.238-261.344c-14.342-14.127-37.392-13.98-51.519 0.364-14.127 14.309-13.945 37.393 0.402 51.483l291.818 287.485c0.109 0.109 0.254 0.144 0.364 0.254s0.144 0.255 0.254 0.364c2.293 2.185 5.062 3.425 7.719 4.88 1.311 0.766 2.438 1.892 3.823 2.438 4.295 1.676 8.846 2.548 13.361 2.548 4.769 0 9.539-0.948 13.98-2.839 1.494-0.619 2.658-1.892 4.043-2.695 2.731-1.603 5.569-2.949 7.901-5.315 0.109-0.109 0.144-0.291 0.255-0.4 0.071-0.11 0.219-0.146 0.326-0.255l511.071-544.096c13.838-14.597 13.074-37.644-1.561-51.441z" p-id="1053" fill="#FFFFFF"></path>
</svg>