<?xml version="1.0" standalone="no"?><!DOCTYPE svg PUBLIC "-//W3C//DTD SVG 1.1//EN" "http://www.w3.org/Graphics/SVG/1.1/DTD/svg11.dtd"><svg t="1713661714370" class="icon" viewBox="0 0 1024 1024" version="1.1" xmlns="http://www.w3.org/2000/svg" p-id="4255" xmlns:xlink="http://www.w3.org/1999/xlink" width="48" height="48"><path d="M512 0C229.376 0 0 229.376 0 512s229.376 512 512 512 512-229.376 512-512S794.624 0 512 0z m218.624 672.256c15.872 15.872 15.872 41.984 0 57.856-8.192 8.192-18.432 11.776-29.184 11.776s-20.992-4.096-29.184-11.776L512 569.856l-160.256 160.256c-8.192 8.192-18.432 11.776-29.184 11.776s-20.992-4.096-29.184-11.776c-15.872-15.872-15.872-41.984 0-57.856L454.144 512 293.376 351.744c-15.872-15.872-15.872-41.984 0-57.856 15.872-15.872 41.984-15.872 57.856 0L512 454.144l160.256-160.256c15.872-15.872 41.984-15.872 57.856 0 15.872 15.872 15.872 41.984 0 57.856L569.856 512l160.768 160.256z" fill="#ffffff" p-id="4256"></path></svg>